<?xml version="1.0" encoding="iso-8859-1"?>
<!-- Uploaded to: SVG Repo, www.svgrepo.com, Generator: SVG Repo Mixer Tools -->
<svg height="800px" width="800px" version="1.1" id="Layer_1" xmlns="http://www.w3.org/2000/svg" xmlns:xlink="http://www.w3.org/1999/xlink" 
	 viewBox="0 0 512.006 512.006" xml:space="preserve">
<g>
	<path style="fill:#BE3A2B;" d="M176.555,217.954c0-22.087,9.031-42.055,23.578-56.452c-20.427-25.379-73.816-106.77-125.431-105.79
		C37.467,56.418,18.585,76.095,9.148,93.441c-7.724,14.204-10.09,62.023-8.828,77.656c2.074,25.618-2.966,137.966,31.682,172.615
		c43.229,43.229,149.504-3.893,161.121-77.33C182.769,252.964,176.555,236.209,176.555,217.954"/>
	<path style="fill:#922C25;" d="M193.117,266.378L193.117,266.378c-5.464,34.578-31.912,63.303-62.888,79.528l-33.121,66.26
		l61.793-8.828l26.483,52.966l70.621-158.897C230.378,297.407,207.647,285.216,193.117,266.378"/>
	<path style="fill:#BE3A2B;" d="M335.451,217.954c0-22.087-9.031-42.055-23.578-56.452c20.427-25.379,73.816-106.77,125.431-105.79
		c37.235,0.706,56.117,20.383,65.554,37.729c7.724,14.204,10.09,62.023,8.828,77.656c-2.074,25.618,2.966,137.966-31.682,172.615
		c-43.229,43.229-149.504-3.893-161.121-77.33C329.237,252.964,335.451,236.209,335.451,217.954"/>
	<g>
		<path style="fill:#922C25;" d="M318.889,266.378L318.889,266.378c5.464,34.578,31.912,63.303,62.888,79.528l33.121,66.26
			l-61.793-8.828l-26.483,52.966l-70.621-158.897C281.628,297.407,304.359,285.216,318.889,266.378"/>
		<path style="fill:#922C25;" d="M176.546,226.781c-1.774,0-3.566-0.538-5.12-1.651l-61.793-44.138
			c-3.972-2.825-4.89-8.342-2.057-12.306c2.834-3.964,8.351-4.89,12.314-2.048l61.793,44.138c3.972,2.825,4.89,8.342,2.057,12.306
			C182.019,225.493,179.3,226.781,176.546,226.781"/>
		<path style="fill:#922C25;" d="M114.77,270.919c-2.754,0-5.473-1.289-7.194-3.699c-2.834-3.964-1.916-9.481,2.057-12.306
			l61.793-44.138c3.955-2.842,9.472-1.924,12.314,2.048c2.834,3.964,1.916,9.481-2.057,12.306l-61.793,44.138
			C118.337,270.381,116.545,270.919,114.77,270.919"/>
		<path style="fill:#922C25;" d="M335.46,226.781c-2.754,0-5.473-1.289-7.194-3.699c-2.834-3.964-1.916-9.481,2.057-12.306
			l61.793-44.138c3.955-2.842,9.481-1.916,12.314,2.048c2.834,3.964,1.916,9.481-2.057,12.306l-61.793,44.138
			C339.026,226.243,337.234,226.781,335.46,226.781"/>
		<path style="fill:#922C25;" d="M397.236,270.919c-1.774,0-3.566-0.538-5.12-1.651l-61.793-44.138
			c-3.972-2.825-4.89-8.342-2.057-12.306c2.825-3.972,8.351-4.89,12.314-2.048l61.793,44.138c3.972,2.825,4.89,8.342,2.057,12.306
			C402.709,269.631,399.99,270.919,397.236,270.919"/>
	</g>
	<path style="fill:#F97B76;" d="M335.451,217.954c0,43.882-35.566,79.448-79.448,79.448s-79.448-35.566-79.448-79.448
		s35.566-79.448,79.448-79.448S335.451,174.072,335.451,217.954"/>
</g>
</svg>